<svg width="37px" height="36px" viewBox="0 0 37 36" fill="none" xmlns="http://www.w3.org/2000/svg" transform="rotate(0) scale(1, 1)">
<path d="M0.757201 31.6737C0.534006 31.876 0.355583 32.1175 0.232117 32.3846C0.108651 32.6517 0.0425608 32.939 0.0376204 33.2303C0.03268 33.5216 0.0889861 33.811 0.203323 34.0821C0.317661 34.3532 0.48779 34.6007 0.703998 34.8104C0.920206 35.0201 1.17826 35.1879 1.46342 35.3042C1.74859 35.4205 2.05528 35.4831 2.36598 35.4884C2.67669 35.4936 2.98532 35.4415 3.27427 35.3349C3.56321 35.2283 3.82681 35.0694 4.05 34.8671L20.854 19.6417C21.0775 19.4396 21.2563 19.1982 21.38 18.9311C21.5037 18.664 21.5699 18.3765 21.5748 18.0851C21.5797 17.7938 21.5233 17.5042 21.4088 17.2331C21.2942 16.9619 21.1238 16.7145 20.9072 16.505L4.62923 0.718444C4.41302 0.508761 4.15496 0.340966 3.8698 0.224636C3.58464 0.108302 3.27795 0.045719 2.96724 0.0404489C2.65654 0.0351788 2.3479 0.0873251 2.05896 0.193921C1.77001 0.300513 1.50642 0.45946 1.28322 0.66169C1.06003 0.86392 0.881604 1.10547 0.758138 1.37254C0.634672 1.63962 0.568582 1.92699 0.563641 2.21826C0.558701 2.50952 0.615007 2.79898 0.729344 3.07008C0.843682 3.3412 1.01381 3.58865 1.23002 3.79833L15.8663 17.9883L0.757201 31.6737ZM35.4855 33.8316C35.4756 34.4191 35.2171 34.9783 34.7669 35.3862C34.3167 35.7941 33.7117 36.0173 33.085 36.0066C32.4583 35.996 31.8612 35.7524 31.4251 35.3295C30.989 34.9065 30.7496 34.3389 30.7596 33.7514L31.2856 2.73936C31.2955 2.15187 31.5541 1.59266 32.0042 1.18475C32.4544 0.776849 33.0594 0.553668 33.6861 0.564298C34.3128 0.574928 34.9099 0.818499 35.346 1.24143C35.7821 1.66437 36.0215 2.23203 36.0116 2.81952L35.4855 33.8316Z" fill="#ffffff"/>
</svg>