<svg width="13" height="13" viewBox="0 0 13 13" fill="none" xmlns="http://www.w3.org/2000/svg">
<path d="M1.38856 0.25414C1.31303 0.173568 1.22336 0.109654 1.12467 0.0660489C1.02599 0.0224435 0.920215 8.48967e-10 0.813398 0C0.706581 -8.48967e-10 0.60081 0.0224435 0.502124 0.0660489C0.403438 0.109654 0.31377 0.173568 0.238239 0.25414C0.162708 0.334712 0.102793 0.430366 0.0619163 0.535638C0.0210392 0.640911 -7.95849e-10 0.753742 0 0.867688C7.95848e-10 0.981635 0.0210392 1.09447 0.0619163 1.19974C0.102793 1.30501 0.162708 1.40066 0.238239 1.48124L5.92484 7.54739C6.0003 7.6281 6.08995 7.69212 6.18864 7.73581C6.28734 7.7795 6.39315 7.80199 6.5 7.80199C6.60685 7.80199 6.71266 7.7795 6.81136 7.73581C6.91005 7.69212 6.9997 7.6281 7.07516 7.54739L12.7618 1.48124C12.8373 1.40066 12.8972 1.30501 12.9381 1.19974C12.979 1.09447 13 0.981635 13 0.867688C13 0.753742 12.979 0.640911 12.9381 0.535638C12.8972 0.430366 12.8373 0.334712 12.7618 0.25414C12.6862 0.173568 12.5966 0.109654 12.4979 0.0660489C12.3992 0.0224435 12.2934 0 12.1866 0C12.0798 0 11.974 0.0224435 11.8753 0.0660489C11.7766 0.109654 11.687 0.173568 11.6114 0.25414L6.5 5.70848L1.38856 0.25414ZM0.813398 13C0.597944 13 0.391314 12.9087 0.238964 12.7462C0.0866152 12.5837 0.00102614 12.3632 0.00102614 12.1334C0.00102614 11.9036 0.0866152 11.6831 0.238964 11.5206C0.391314 11.3581 0.597944 11.2668 0.813398 11.2668L12.1866 11.2668C12.4021 11.2668 12.6087 11.3581 12.761 11.5206C12.9134 11.6831 12.999 11.9036 12.999 12.1334C12.999 12.3632 12.9134 12.5837 12.761 12.7462C12.6087 12.9087 12.4021 13 12.1866 13L0.813398 13Z" fill="white"/>
</svg>
